<svg width="512" height="512" viewBox="0 0 512 512" xmlns="http://www.w3.org/2000/svg">
  <defs>
    <linearGradient id="orb1i" x1="0%" y1="0%" x2="100%" y2="0%">
      <stop offset="0%" stop-color="#10B981" stop-opacity="0"/>
      <stop offset="20%" stop-color="#10B981" stop-opacity="1"/>
      <stop offset="80%" stop-color="#10B981" stop-opacity="1"/>
      <stop offset="100%" stop-color="#10B981" stop-opacity="0"/>
    </linearGradient>
    <linearGradient id="orb2i" x1="0%" y1="0%" x2="100%" y2="0%">
      <stop offset="0%" stop-color="#0EA5E9" stop-opacity="0"/>
      <stop offset="20%" stop-color="#0EA5E9" stop-opacity="1"/>
      <stop offset="80%" stop-color="#0EA5E9" stop-opacity="1"/>
      <stop offset="100%" stop-color="#0EA5E9" stop-opacity="0"/>
    </linearGradient>
    <linearGradient id="orb3i" x1="0%" y1="0%" x2="100%" y2="0%">
      <stop offset="0%" stop-color="#F59E0B" stop-opacity="0"/>
      <stop offset="20%" stop-color="#F59E0B" stop-opacity="1"/>
      <stop offset="80%" stop-color="#F59E0B" stop-opacity="1"/>
      <stop offset="100%" stop-color="#F59E0B" stop-opacity="0"/>
    </linearGradient>
    <radialGradient id="nucleusI" cx="35%" cy="35%" r="70%">
      <stop offset="0%" stop-color="#6EE7B7"/>
      <stop offset="50%" stop-color="#10B981"/>
      <stop offset="100%" stop-color="#064E3B"/>
    </radialGradient>
    <linearGradient id="bgGrad" x1="0%" y1="0%" x2="100%" y2="100%">
      <stop offset="0%" stop-color="#F8FAFC"/>
      <stop offset="100%" stop-color="#E2E8F0"/>
    </linearGradient>
  </defs>

  <rect width="512" height="512" rx="112" fill="url(#bgGrad)"/>

  <g transform="translate(256,256)">
    <ellipse cx="0" cy="0" rx="170" ry="44" fill="none" stroke="url(#orb1i)" stroke-width="5"/>
    <ellipse cx="0" cy="0" rx="170" ry="44" fill="none" stroke="url(#orb2i)" stroke-width="5" transform="rotate(60)"/>
    <ellipse cx="0" cy="0" rx="170" ry="44" fill="none" stroke="url(#orb3i)" stroke-width="5" transform="rotate(-60)"/>

    <g transform="rotate(0)">
      <circle cx="170" cy="0" r="12" fill="#10B981"/>
      <circle cx="170" cy="0" r="22" fill="none" stroke="#10B981" stroke-width="2" opacity="0.25"/>
    </g>
    <g transform="rotate(60)">
      <circle cx="170" cy="0" r="12" fill="#0EA5E9"/>
      <circle cx="170" cy="0" r="22" fill="none" stroke="#0EA5E9" stroke-width="2" opacity="0.25"/>
    </g>
    <g transform="rotate(-60)">
      <circle cx="170" cy="0" r="12" fill="#F59E0B"/>
      <circle cx="170" cy="0" r="22" fill="none" stroke="#F59E0B" stroke-width="2" opacity="0.25"/>
    </g>

    <circle cx="0" cy="0" r="42" fill="#0F172A"/>
    <circle cx="0" cy="0" r="36" fill="url(#nucleusI)"/>
    <circle cx="-10" cy="-12" r="8" fill="#ECFDF5" opacity="0.9"/>
  </g>
</svg>
